<svg version="1.1" xmlns="http://www.w3.org/2000/svg" xmlns:xlink="http://www.w3.org/1999/xlink" width="512" height="512" viewBox="0,0,256,256"><g fill="#6366f1" fill-rule="nonzero" stroke="none" stroke-width="1" stroke-linecap="butt" stroke-linejoin="miter" stroke-miterlimit="10" stroke-dasharray="" stroke-dashoffset="0" font-family="none" font-weight="none" font-size="none" text-anchor="none" style="mix-blend-mode: normal"><g transform="translate(-0.00282,0) scale(10.66667,10.66667)"><g><path d="M3.646,4.745c-0.208,0 -0.377,0.077 -0.465,0.22c-0.091,0.148 -0.097,0.321 0,0.514l2.348,4.06c0.004,0.008 0.004,0.017 0,0.024l-3.668,6.481c-0.096,0.191 -0.091,0.39 0,0.538c0.088,0.142 0.232,0.245 0.44,0.245h3.473c0.518,0 0.752,-0.365 0.929,-0.685c0,0 3.602,-6.356 3.742,-6.603c-0.014,-0.024 -2.373,-4.159 -2.373,-4.159c-0.172,-0.306 -0.447,-0.635 -0.978,-0.635z"></path><path d="M18.186,0c-0.517,0 -0.741,0.326 -0.927,0.659c0,0 -7.457,13.224 -7.702,13.658c0.012,0.024 4.918,9.023 4.918,9.023c0.172,0.308 0.437,0.66 0.967,0.66h3.458c0.208,0 0.371,-0.079 0.459,-0.221c0.092,-0.148 0.09,-0.343 -0.007,-0.535l-4.88,-8.915c-0.004,-0.007 -0.004,-0.016 0,-0.023l7.664,-13.551c0.096,-0.191 0.098,-0.386 0.007,-0.534c-0.088,-0.142 -0.252,-0.221 -0.46,-0.221h-3.497z"></path></g></g></g></svg>